<?xml version="1.0" encoding="iso-8859-1"?>
<!-- Generator: Adobe Illustrator 19.0.0, SVG Export Plug-In . SVG Version: 6.00 Build 0)  -->
<svg version="1.1" id="Layer_1" xmlns="http://www.w3.org/2000/svg" xmlns:xlink="http://www.w3.org/1999/xlink" x="0px" y="0px"
	 viewBox="0 0 501.333 501.333" style="enable-background:new 0 0 501.333 501.333;" xml:space="preserve">
<g>
	<g>
		<path d="M411.733,42.133H265.6C119.467,42.133,0,161.6,0,307.733V369.6c0,11.733,9.6,21.333,21.333,21.333h27.733
			C59.733,430.4,96,459.2,137.6,459.2c42.667,0,77.867-28.8,88.533-68.267H275.2c10.667,39.467,46.933,68.267,88.533,68.267
			c43.733,0,80-29.867,89.6-70.4H480c11.733,0,21.333-9.6,21.333-19.2V131.733C501.333,82.667,460.8,42.133,411.733,42.133z
			 M183.467,98.667V193.6H72.534C98.134,150.933,136.533,116.8,183.467,98.667z M137.6,418.667c-27.733,0-50.133-22.4-50.133-50.133
			s22.4-50.133,50.133-50.133c26.667,0,49.067,22.4,50.133,50.133C187.733,396.267,165.333,418.667,137.6,418.667z M363.733,418.667
			c-27.733,0-50.133-22.4-50.133-50.133S336,318.4,363.733,318.4s50.133,22.4,50.133,50.133
			C413.867,396.267,391.467,418.667,363.733,418.667z M459.734,346.133L459.734,346.133h-6.4c-9.6-40.533-45.867-70.4-89.6-70.4
			c-44.8,0-81.067,30.933-89.6,72.533H227.2c-8.533-41.6-44.8-72.533-89.6-72.533c-44.8,0-81.067,30.933-89.6,72.533h-6.4v-41.6
			c0-24.533,4.267-48,11.733-70.4h406.4V346.133z M459.734,193.6L459.734,193.6h-233.6V85.867c12.8-2.133,25.6-3.2,39.467-3.2
			h146.133c26.667,0,48,21.333,48,48V193.6z"/>
	</g>
</g>
<g>
</g>
<g>
</g>
<g>
</g>
<g>
</g>
<g>
</g>
<g>
</g>
<g>
</g>
<g>
</g>
<g>
</g>
<g>
</g>
<g>
</g>
<g>
</g>
<g>
</g>
<g>
</g>
<g>
</g>
</svg>
